# xmcd
#
# Track frame offsets: 
#        150
#        13970
#        28310
#        46120
#        64712
#        86907
#        103032
#        119005
#        136790
#        158715
#
# Disc length: 2350 seconds
#
# Revision: 2
# Processed by: cddbd v1.5.1PL0 Copyright (c) Steve Scherf et al.
# Submitted via: ExactAudioCopy v0.90b3
#
DISCID=86092c0a
DTITLE=Magic Sam - Black Magic
DYEAR=1968
DGENRE=Blues
TTITLE0=I Just Want A Little Bit
TTITLE1=What Have I Done Wrong
TTITLE2=Easy, Baby
TTITLE3=You Belong To Me
TTITLE4=It's All Your Fault
TTITLE5=I Have The Same Old Blues
TTITLE6=You Don't Love Me, Baby
TTITLE7=San-Ho-Zay
TTITLE8=Stop!  You're Hurting Me
TTITLE9=Keep Loving Me Baby
EXTD=
EXTT0=
EXTT1=
EXTT2=
EXTT3=
EXTT4=
EXTT5=
EXTT6=
EXTT7=
EXTT8=
EXTT9=
PLAYORDER=
